<svg width="380" height="300" viewBox="0 0 380 300" fill="none" xmlns="http://www.w3.org/2000/svg">
<path d="M345.795 194.089L344.969 162.085L309.962 127.079C303.778 120.895 293.729 120.904 287.545 127.079L285.715 128.909C283.405 113.52 278.207 98.8513 270.344 85.6838C271.534 77.4385 261.77 72.5518 261.352 72.3475L260.988 72.1698L260.881 72.1609C241.299 48.1715 213.294 34.4266 183.885 34.4266C165.857 34.4266 148.114 39.5887 132.574 49.3533C123.094 48.5181 113.916 53.3071 113.489 53.5292L113.391 53.5825C98.1537 62.7073 97.8872 82.885 97.8872 83.738V84.1378L98.0204 84.511C98.0293 84.5287 98.0471 84.5732 98.0649 84.6354C92.6895 93.4314 88.4869 102.956 85.5549 113.005C82.2408 115.04 74.4753 121.828 77.0431 139.953L77.0964 140.362L77.2919 140.717C77.3629 140.85 78.3314 142.521 80.7215 143.747C80.6859 144.964 80.6593 146.181 80.6593 147.381C80.6593 168.385 85.928 188.065 95.0973 204.929C94.8929 205.133 94.6886 205.346 94.4753 205.551C93.5335 206.475 92.7783 207.292 91.9876 208.127C90.6815 209.433 89.331 210.704 87.9094 211.877C88.6291 203.845 88.789 187.159 78.1981 183.907C72.5828 182.183 68.9489 184.138 66.8876 186.092C61.6633 191.024 60.8014 201.144 62.6406 208.589C64.8263 217.421 60.064 224.635 55.6659 229.931C47.5007 239.784 42.7828 255.253 54.0311 269.14C61.6011 278.487 71.3301 283.258 82.1164 283.258C88.6557 283.258 95.5771 281.508 102.649 277.954C111.623 273.449 114.644 267.336 115.595 263.001C116.83 257.376 115.328 251.175 111.463 245.826C111.499 245.631 111.526 245.426 111.526 245.195C111.543 245.009 111.534 244.778 111.508 244.547C111.508 244.52 111.499 244.475 111.49 244.449C112.005 239.34 110.593 231.317 102.516 226.43C102.969 226.164 103.44 225.924 103.929 225.71C105.351 225.089 106.87 224.671 108.451 224.413C127.305 246.501 154.138 260.335 183.867 260.335C199.291 260.335 213.924 256.612 227.083 249.949L230.042 252.907C230.14 253.449 230.246 254 230.388 254.524C231.819 259.944 245.75 276.79 254.982 283.205C256.084 284.129 264.275 290.526 279.282 290.526C284.666 290.526 290.93 289.7 298.056 287.505C309.944 283.836 318.056 274.693 320.881 261.766C323.698 248.882 320.544 234.196 313.534 226.324L345.102 194.755L345.795 194.089Z" fill="#FFEDDD"/>
<path d="M350.237 194.089C350.051 186.901 349.864 179.713 349.677 172.525C349.544 167.425 350.619 161.561 346.861 157.705C335.977 146.555 324.915 135.537 313.791 124.635C304.249 115.288 291.623 116.728 282.578 125.782C285.057 126.439 287.527 127.088 290.006 127.745C288.807 120.104 286.994 112.596 284.4 105.302C283.076 101.57 281.565 97.8917 279.904 94.3022C278.482 91.228 275.844 87.905 274.928 84.6887C274.218 82.2009 274.422 79.9174 273.125 77.4919C272.014 75.4039 270.406 73.5558 268.629 72.0099C266.514 70.1707 263.778 68.0205 260.881 67.7362C261.93 68.1716 262.978 68.6069 264.027 69.0334C243.813 44.5998 213.569 29.2466 181.574 30.0285C172.734 30.2418 163.858 31.6456 155.381 34.1778C151.552 35.3239 147.82 36.7278 144.151 38.3004C142.25 39.1178 140.366 39.9797 138.509 40.9126C136.35 42.0054 133.951 44.0756 131.668 44.6976C128.087 45.6838 124.018 45.2395 120.322 46.2258C117.469 46.9899 114.564 48.0116 111.925 49.3622C106.976 51.8944 102.88 56.2302 99.975 60.9126C96.9008 65.8615 94.9817 71.5923 94.0843 77.3319C93.6933 79.8108 92.8404 83.3382 93.7822 85.8259C93.9332 84.6887 94.0843 83.5425 94.2264 82.4053C88.6645 91.6367 84.3553 101.508 81.2722 111.832C81.9563 110.944 82.6316 110.064 83.3157 109.176C78.0292 112.516 74.6085 118.016 73.1336 124.031C71.8897 129.096 71.632 134.826 72.6005 139.962C73.2846 143.587 75.2482 145.622 78.4912 147.594C77.7538 146.315 77.0252 145.035 76.2877 143.756C75.728 165.861 80.8368 187.674 91.2766 207.176C91.5076 205.382 91.7387 203.587 91.9697 201.792C89.6152 204.164 87.3406 206.572 84.7906 208.74C87.3228 209.789 89.8462 210.837 92.3784 211.885C93.0181 204.351 92.867 196.168 89.704 189.167C86.2566 181.543 77.8693 176.905 69.553 179.491C60.9079 182.183 57.6116 191.921 57.3539 200.122C57.2029 204.946 59.2287 209.806 58.7044 214.542C58.0914 220.113 54.3686 224.333 51.1256 228.589C45.4215 236.079 42.0718 245.515 43.2269 254.977C44.5152 265.515 51.2677 274.435 59.7084 280.522C68.0425 286.519 78.3402 288.634 88.4246 287.176C98.6778 285.693 110.157 280.975 116.297 272.232C118.74 268.749 120.188 264.609 120.446 260.362C120.606 257.723 120.277 254.995 119.584 252.445C118.9 249.931 116.51 246.466 116.003 245.186C115.426 243.747 116.137 242.912 116.012 241.073C115.861 238.887 115.453 236.719 114.724 234.658C112.903 229.469 109.357 225.559 104.791 222.592C104.791 225.151 104.791 227.71 104.791 230.26C106.434 229.424 107.883 229.051 109.668 228.687C108.229 228.305 106.79 227.923 105.35 227.541C119.673 244.111 138.687 256.595 160.055 261.854C183.431 267.612 207.883 264.44 229.366 253.769C227.572 253.538 225.777 253.307 223.982 253.076C224.48 253.574 224.968 254.062 225.466 254.56C225.937 255.031 226.612 256.106 226.488 255.804C226.719 256.355 227.589 259.162 228.425 260.557C231.294 265.355 234.964 269.762 238.669 273.929C244.524 280.522 251.161 287.221 259.3 290.855C271.979 296.515 286.87 295.902 299.877 291.583C311.721 287.656 320.428 278.549 324.213 266.697C328.762 252.419 326.568 234.773 316.723 223.169C316.723 225.266 316.723 227.354 316.723 229.451C327.474 218.7 338.216 207.949 348.967 197.208C353.018 193.165 346.736 186.874 342.685 190.926C331.925 201.668 321.183 212.427 310.441 223.169C308.647 224.964 308.887 227.621 310.441 229.451C317.923 238.274 319.069 252.339 316.012 263.098C312.84 274.24 304.702 281.25 293.693 284.12C283.245 286.839 271.286 287.248 261.494 282.077C258.189 280.335 258.118 280.131 255.435 277.963C251.472 274.755 247.909 271.006 244.542 267.176C241.263 263.445 237.798 259.473 235.497 255.031C234.582 253.28 234.466 251.326 233.231 249.744C232.396 248.669 231.232 247.745 230.273 246.786C228.798 245.311 226.674 245.204 224.888 246.093C205.164 255.893 182.454 258.54 161.103 252.952C141.636 247.861 124.728 236.399 111.641 221.259C110.575 220.024 108.816 219.82 107.323 220.113C104.817 220.611 102.587 221.419 100.322 222.574C97.194 224.164 97.6916 228.536 100.322 230.242C103.387 232.241 105.652 234.906 106.648 238.46C106.967 239.615 107.136 240.753 107.19 241.943C107.216 242.503 107.145 243.072 107.163 243.631C107.172 243.791 107.163 246.421 107.136 245.168C107.234 248.714 110.104 251.344 111.037 254.791C111.943 258.132 111.819 261.694 110.361 264.866C107.012 272.143 98.3313 275.759 91.0545 277.625C83.3335 279.607 75.106 279.109 68.0425 275.244C60.8901 271.335 54.413 264.431 52.4761 256.363C50.6813 248.856 53.1425 241.17 57.425 234.969C61.8142 228.616 66.7098 223.303 67.5361 215.226C68.3179 207.594 64.5063 200.459 67.6605 192.881C70.6813 185.622 79.1665 186.608 81.9741 193.458C84.2931 199.136 84.0354 205.861 83.5201 211.859C83.1647 216.035 88.4512 217.261 91.1078 215.004C93.6578 212.836 95.9323 210.428 98.2869 208.056C99.7173 206.617 99.9217 204.422 98.9799 202.672C89.2686 184.52 84.6929 164.289 85.2082 143.729C85.2438 142.156 84.3286 140.699 83.0048 139.891C82.3206 139.473 81.6454 139.091 81.1656 138.451C80.979 138.212 80.9257 137.634 81.3877 138.949C81.2811 138.647 81.2455 137.83 81.2455 137.599C81.2722 134.684 80.8546 131.85 81.2278 128.927C81.6809 125.408 82.8893 121.801 85.226 119.082C85.8835 118.318 86.8697 117.483 87.1985 117.216C89.2153 115.635 89.7751 114.391 90.5481 111.903C92.6805 105.08 95.4437 98.4959 98.8377 92.2142C100.108 89.8686 102.312 87.3275 102.525 84.6087C102.543 84.3955 102.232 82.4763 102.294 83.5159C102.347 84.3688 102.338 83.6758 102.347 83.4714C102.383 81.3213 102.694 79.1889 103.138 77.0921C104.791 69.2822 108.7 61.0814 116.057 57.1809C120.57 54.782 125.972 53.7158 131.019 53.6713C134.306 53.6447 136.048 52.3475 138.882 50.7482C142.161 48.9001 145.546 47.212 149.029 45.7815C161.557 40.6283 175.115 38.2826 188.647 38.9579C213.054 40.184 235.95 51.7344 252.618 69.4066C254.751 71.6634 256.599 74.5421 259.202 76.1947C259.38 76.2657 259.557 76.3457 259.735 76.4168C261.237 76.6656 261.308 76.6389 259.939 76.3191C258.953 75.9903 258.66 75.9281 259.051 76.1058C259.104 76.1325 259.149 76.1503 259.202 76.1769C259.326 76.3901 259.975 76.5767 260.179 76.7189C261.654 77.7673 263.111 78.6736 264.284 80.104C266.141 82.3697 265.43 84.28 266.097 86.8299C266.967 90.1351 269.775 93.5647 271.277 96.6567C272.903 99.9885 274.342 103.4 275.604 106.892C278.331 114.409 280.233 122.165 281.468 130.055C282.001 133.467 286.736 134.178 288.895 132.019C294.493 126.421 301.459 124.92 307.545 130.873C311.241 134.489 314.866 138.194 318.527 141.854C326.31 149.638 334.084 157.412 341.867 165.195C341.432 164.147 340.997 163.098 340.57 162.05C340.846 172.721 341.121 183.383 341.397 194.053C341.503 199.793 350.388 199.82 350.237 194.089Z" fill="#FFEDDD"/>
<path d="M183.884 258.674C239.662 258.674 284.879 209.097 284.879 147.941C284.879 86.7844 239.662 37.2075 183.884 37.2075C128.106 37.2075 82.8892 86.7844 82.8892 147.941C82.8892 209.097 128.106 258.674 183.884 258.674Z" fill="#EF9D3C"/>
<path d="M159.113 181.766C159.255 181.375 165.626 168.74 176.288 170.944C186.95 173.147 191.126 180.335 191.126 180.335C191.126 180.335 201.166 171.299 198.234 162.37C195.302 153.449 193.791 154.604 191.712 154.72C189.624 154.835 180.819 161.206 173.747 159.704C166.674 158.203 157.061 153.911 157.061 153.911C157.061 153.911 151.463 153.334 151.481 159.589C151.499 165.844 151.437 178.567 159.113 181.766Z" fill="#3B1314"/>
<path d="M213.693 41.3745C213.693 41.3745 261.512 75.6082 262.632 136.861C263.751 198.105 226.479 225.995 202.552 238.158C178.624 250.322 144.044 247.479 144.044 247.479C144.044 247.479 195.47 279.198 244.684 237.412C293.898 195.626 284.906 136.461 284.906 136.461C284.906 136.461 278.207 60.2639 213.693 41.3745Z" fill="#B34F27"/>
<path d="M150.237 78.4692C153.947 78.4692 156.954 75.4619 156.954 71.7522C156.954 68.0425 153.947 65.0352 150.237 65.0352C146.527 65.0352 143.52 68.0425 143.52 71.7522C143.52 75.4619 146.527 78.4692 150.237 78.4692Z" fill="#B34F27"/>
<path d="M158.909 65.1507C160.415 65.1507 161.637 63.9294 161.637 62.423C161.637 60.9165 160.415 59.6953 158.909 59.6953C157.402 59.6953 156.181 60.9165 156.181 62.423C156.181 63.9294 157.402 65.1507 158.909 65.1507Z" fill="#B34F27"/>
<path d="M229.162 163.489C231.645 163.489 233.658 161.476 233.658 158.993C233.658 156.51 231.645 154.498 229.162 154.498C226.679 154.498 224.666 156.51 224.666 158.993C224.666 161.476 226.679 163.489 229.162 163.489Z" fill="#B34F27"/>
<path d="M217.781 159.944C219.032 159.944 220.046 158.93 220.046 157.678C220.046 156.427 219.032 155.413 217.781 155.413C216.529 155.413 215.515 156.427 215.515 157.678C215.515 158.93 216.529 159.944 217.781 159.944Z" fill="#B34F27"/>
<path d="M218.358 172.694C219.928 172.694 221.201 171.421 221.201 169.851C221.201 168.281 219.928 167.008 218.358 167.008C216.788 167.008 215.515 168.281 215.515 169.851C215.515 171.421 216.788 172.694 218.358 172.694Z" fill="#B34F27"/>
<path d="M127.678 227.185C131.005 227.185 133.702 224.488 133.702 221.161C133.702 217.834 131.005 215.137 127.678 215.137C124.351 215.137 121.654 217.834 121.654 221.161C121.654 224.488 124.351 227.185 127.678 227.185Z" fill="#B34F27"/>
<path d="M125.759 212.907C127.55 212.907 129.002 211.455 129.002 209.664C129.002 207.873 127.55 206.421 125.759 206.421C123.968 206.421 122.516 207.873 122.516 209.664C122.516 211.455 123.968 212.907 125.759 212.907Z" fill="#BC6138"/>
<path d="M114.973 130.722C117.048 130.722 118.731 129.039 118.731 126.963C118.731 124.888 117.048 123.205 114.973 123.205C112.897 123.205 111.214 124.888 111.214 126.963C111.214 129.039 112.897 130.722 114.973 130.722Z" fill="#B34F27"/>
<path d="M110.228 136.763C111.475 136.763 112.485 135.753 112.485 134.507C112.485 133.26 111.475 132.25 110.228 132.25C108.982 132.25 107.971 133.26 107.971 134.507C107.971 135.753 108.982 136.763 110.228 136.763Z" fill="#B34F27"/>
<path d="M208.345 146.901C213.36 146.901 217.425 142.836 217.425 137.821C217.425 132.806 213.36 128.74 208.345 128.74C203.33 128.74 199.264 132.806 199.264 137.821C199.264 142.836 203.33 146.901 208.345 146.901Z" fill="#FFEDDD"/>
<path d="M151.472 145.941C156.487 145.941 160.552 141.876 160.552 136.861C160.552 131.846 156.487 127.781 151.472 127.781C146.457 127.781 142.392 131.846 142.392 136.861C142.392 141.876 146.457 145.941 151.472 145.941Z" fill="#FFEDDD"/>
<path d="M161.379 39.9708C161.379 39.9708 122.285 58.0427 101.254 98.3271C80.2236 138.611 89.2685 182.299 89.2685 182.299C89.2685 182.299 72.8402 130.357 96.714 92.001C120.588 53.6447 151.881 41.8188 161.379 39.9708Z" fill="#FFEDDD"/>
<path d="M159.886 182.974C159.886 182.974 158.002 173.751 170.264 171.201C182.525 168.651 190.157 180.85 190.157 180.85C190.157 180.85 176.723 195.031 159.886 182.974Z" fill="#DE393A"/>
<path d="M239.859 69.0779C242.321 72.0188 244.515 75.1729 246.585 78.4159C248.656 81.6589 250.539 85.0174 252.289 88.447C254.022 91.8855 255.604 95.4128 257.043 98.9934C258.482 102.583 259.682 106.252 260.792 109.966C262.916 117.403 264.355 125.071 264.897 132.827C265.43 140.575 265.137 148.403 263.955 156.097C263.591 158.007 263.298 159.935 262.854 161.828L262.178 164.671L261.841 166.092L261.432 167.496C260.419 171.264 259.06 174.88 257.763 178.523C254.911 185.71 251.792 192.827 247.652 199.393C243.636 206.004 238.927 212.223 233.471 217.705C232.778 218.38 232.112 219.073 231.41 219.74L229.242 221.659L228.158 222.619L227.021 223.516C226.265 224.111 225.51 224.715 224.737 225.293C221.619 227.559 218.34 229.629 214.786 231.086C221.494 227.372 227.172 222.148 232.201 216.506C237.247 210.846 241.53 204.564 245.253 197.989C246.141 196.319 247.101 194.693 247.927 192.987L250.361 187.869L250.966 186.59L251.499 185.275L252.565 182.645C253.249 180.877 254.049 179.162 254.6 177.35C255.79 173.76 257.141 170.206 258.074 166.572L258.456 165.213L258.767 163.836L259.397 161.09C259.815 159.26 260.073 157.394 260.428 155.546C262.809 140.682 261.779 125.364 258.109 110.695C256.234 103.365 253.773 96.1592 250.708 89.2022C249.206 85.7105 247.518 82.2898 245.724 78.9224C243.929 75.555 242.027 72.2409 239.859 69.0779Z" fill="#3B1314"/>
<path d="M164.897 179.34C164.897 179.34 167.287 173.671 178.322 174.453C178.322 174.453 168.46 175.484 164.897 179.34Z" fill="#FFEDDD"/>
<path d="M87.7583 114.969C87.7583 114.969 76.2789 119.402 79.2376 140.264C79.2376 140.264 82.0186 145.302 91.7565 142.698C91.7565 142.698 96.2789 136.443 96.7143 125.746C96.7054 125.746 94.0133 120.095 87.7583 114.969Z" fill="#661F2B"/>
<path d="M110.006 93.3248C103.316 93.1471 100.1 84.3688 100.1 84.3688C100.1 84.3688 100.188 64.6976 114.529 56.1058C114.529 56.1058 125.484 50.2951 135.302 52.6407C135.302 52.6496 138.776 82.2009 110.006 93.3248Z" fill="#661F2B"/>
<path d="M240.908 85.7638C240.908 85.7638 243.982 73.3693 260.375 74.9597C260.375 74.9597 269.18 79.2777 268.14 86.057C268.14 86.057 265.706 89.4776 254.813 90.4639C254.813 90.455 245.075 89.7087 240.908 85.7638Z" fill="#661F2B"/>
<path d="M116.732 162.894C116.732 162.894 129.597 170.544 131.57 181.206C131.57 181.206 129.74 192.241 115.346 201.721C115.346 201.721 100.162 192.099 101.326 181.206C101.317 181.197 103.636 171.583 116.732 162.894Z" fill="#661F2B"/>
<path d="M175.453 66.901C175.453 66.901 182.756 81.5878 198.749 82.2009C198.749 82.2009 215.781 74.8175 218.305 59.8641C218.305 59.8641 217.265 53.5203 211.001 48.216C211.001 48.216 192.92 45.0885 179.193 57.7762C179.193 57.7762 175.373 61.1702 175.453 66.901Z" fill="#661F2B"/>
<path d="M267.794 114.8C267.794 114.8 246.177 120.824 243.396 135.662C243.396 135.662 253.534 147.479 267.208 144.236C267.208 144.236 284.018 130.384 267.794 114.8Z" fill="#661F2B"/>
<path d="M143.12 222.05C143.12 222.05 178.322 187.63 200.659 226.395C200.659 226.395 199.096 236.568 181.708 247.079C181.708 247.079 170.406 250.899 157.461 242.992C157.461 243.001 149.295 237.874 143.12 222.05Z" fill="#661F2B"/>
<path d="M218.598 186.537C218.598 186.537 226.248 175.786 243.05 174.267C243.05 174.267 253.596 177.385 255.915 193.956C255.915 193.956 249.891 198.94 237.257 198.363C237.257 198.354 225.902 196.843 218.598 186.537Z" fill="#661F2B"/>
<path d="M102.001 84.0756C102.001 84.0756 106.586 61.7833 133.383 54.3022C133.392 54.3022 98.6336 49.5843 102.001 84.0756Z" fill="#9F3E4F"/>
<path d="M87.7318 117.172C87.7318 117.172 80.7483 128.589 81.4413 139.713C81.4413 139.713 75.595 120.477 87.7318 117.172Z" fill="#9F3E4F"/>
<path d="M177.283 66.5901C177.283 66.5901 189.1 52.774 210.575 49.9041C210.566 49.8953 177.799 44.1645 177.283 66.5901Z" fill="#9F3E4F"/>
<path d="M116.785 165.373C116.785 165.373 103.005 179.153 105.439 190.579C105.439 190.579 100.446 186.883 102.01 181.543C103.565 176.195 112.005 165.675 116.785 165.373Z" fill="#9F3E4F"/>
<path d="M259.798 76.8433C248.754 79.1889 243.423 84.9819 243.423 84.9819C243.423 84.9819 246.275 73.5825 259.798 76.8433Z" fill="#9F3E4F"/>
<path d="M220.97 186.937C220.97 186.937 236.777 177.385 248.985 178.851L243.68 174.969C243.689 174.977 221.201 180.086 220.97 186.937Z" fill="#9F3E4F"/>
<path d="M245.706 135.075C245.706 135.075 259.94 120.904 271.677 119.82L267.98 115.431C267.98 115.439 244.364 124.36 245.706 135.075Z" fill="#9F3E4F"/>
<path d="M145.466 222.778C145.466 222.778 177.39 203.098 198.767 227.212C198.767 227.212 182.934 186.883 145.466 222.778Z" fill="#9F3E4F"/>
<path d="M133.56 51.9121C148.38 42.5563 165.564 37.2075 183.893 37.2075C214.146 37.2075 241.299 51.7966 259.806 74.8975" stroke="#3B1314" stroke-width="5" stroke-miterlimit="10"/>
<path d="M87.1719 115.919C90.2283 104.804 94.8396 94.4266 100.721 85.0974" stroke="#3B1314" stroke-width="5" stroke-miterlimit="10"/>
<path d="M266.985 84.9819C278.278 102.858 284.888 124.555 284.888 147.941C284.888 209.096 239.673 258.674 183.893 258.674C128.114 258.674 82.8982 209.096 82.8982 147.941C82.8982 146.35 82.9248 144.769 82.987 143.196" stroke="#3B1314" stroke-width="5" stroke-miterlimit="10"/>
<path d="M145.688 105.702C133.178 105.702 123.04 115.839 123.04 128.34C123.04 140.841 133.178 150.979 145.688 150.979C158.189 150.979 168.327 140.841 168.327 128.34C168.327 115.839 158.189 105.702 145.688 105.702ZM151.472 143.205C147.758 143.205 144.746 140.193 144.746 136.479C144.746 132.756 147.758 129.744 151.472 129.744C155.195 129.744 158.207 132.756 158.207 136.479C158.207 140.193 155.195 143.205 151.472 143.205Z" fill="#3B1314"/>
<path d="M202.552 105.702C190.042 105.702 179.904 115.839 179.904 128.34C179.904 140.841 190.042 150.979 202.552 150.979C215.053 150.979 225.191 140.841 225.191 128.34C225.191 115.839 215.053 105.702 202.552 105.702ZM208.336 143.205C204.622 143.205 201.61 140.193 201.61 136.479C201.61 132.756 204.622 129.744 208.336 129.744C212.059 129.744 215.071 132.756 215.071 136.479C215.08 140.193 212.059 143.205 208.336 143.205Z" fill="#3B1314"/>
<path d="M197.132 158.327C202.552 174.364 186.914 187.923 174.307 187.923C161.699 187.923 147.385 174.711 151.481 158.327C154.2 147.452 162.534 159.411 175.142 159.411C187.75 159.411 193.542 147.71 197.132 158.327Z" stroke="#3B1314" stroke-width="4" stroke-miterlimit="10"/>
<path d="M159.113 181.774C159.113 181.774 162.152 170.846 174.493 170.846C186.834 170.846 190.824 180.833 190.824 180.833" stroke="#3B1314" stroke-width="4" stroke-miterlimit="10"/>
<path d="M220.952 109.184C214.511 99.0734 202.916 95.3417 197.763 95.8037C192.609 96.2746 189.749 94.3288 189.749 90.9792C189.749 87.6385 193.756 87.4785 193.756 87.4785C193.756 87.4785 214.227 86.2346 220.952 109.184Z" fill="#3B1314"/>
<path d="M222.392 108.34C218.118 101.988 211.863 97.1542 204.453 95.0219C201.112 94.0623 197.763 94.8353 194.511 94.0623C191.206 93.2804 190.948 89.4332 194.2 89.14C206.443 88.0294 216.084 99.1267 219.344 109.629C219.975 111.672 223.2 110.802 222.561 108.74C218.749 96.479 207.767 84.742 193.818 85.8171C187.572 86.2969 186.052 93.9201 191.774 96.6478C195.63 98.4959 200.375 97.1542 204.515 98.5225C210.682 100.575 215.906 104.635 219.522 110.02C220.704 111.797 223.591 110.126 222.392 108.34Z" fill="#3B1314"/>
<path d="M127.003 109.184C133.445 99.0734 145.04 95.3417 150.193 95.8037C155.346 96.2746 158.207 94.3288 158.207 90.9792C158.207 87.6385 154.2 87.4785 154.2 87.4785C154.2 87.4785 133.729 86.2346 127.003 109.184Z" fill="#3B1314"/>
<path d="M128.442 110.029C132.05 104.662 137.283 100.557 143.449 98.5314C147.59 97.172 152.325 98.487 156.19 96.6567C161.939 93.929 160.375 86.3057 154.147 85.8259C140.197 84.7331 129.207 96.5057 125.404 108.749C124.764 110.802 127.98 111.681 128.62 109.638C131.899 99.0734 141.512 88.1005 153.765 89.1489C157.132 89.4332 156.679 93.2449 153.454 94.0712C150.433 94.853 147.11 94.0623 143.964 94.9063C136.377 96.9499 129.926 101.872 125.573 108.349C124.364 110.126 127.252 111.797 128.442 110.029Z" fill="#3B1314"/>
<path d="M87.7583 114.915C87.7583 114.915 76.2789 119.349 79.2376 140.211C79.2376 140.211 82.0186 145.248 91.7565 142.645C91.7565 142.645 96.2789 136.39 96.7143 125.693C96.7054 125.693 94.0133 120.042 87.7583 114.915Z" stroke="#3B1314" stroke-width="5" stroke-miterlimit="10"/>
<path d="M110.006 93.2715C103.316 93.0938 100.1 84.3155 100.1 84.3155C100.1 84.3155 100.188 64.6442 114.529 56.0525C114.529 56.0525 125.484 50.2417 135.302 52.5874C135.302 52.5962 138.776 82.1476 110.006 93.2715Z" stroke="#3B1314" stroke-width="5" stroke-miterlimit="10"/>
<path d="M240.908 85.7104C240.908 85.7104 243.982 73.3159 260.375 74.9063C260.375 74.9063 269.18 79.2244 268.14 86.0036C268.14 86.0036 265.706 89.4243 254.813 90.4106C254.813 90.4017 245.075 89.6464 240.908 85.7104Z" stroke="#3B1314" stroke-width="5" stroke-miterlimit="10"/>
<path d="M116.732 162.832C116.732 162.832 129.597 170.482 131.57 181.144C131.57 181.144 129.74 192.179 115.346 201.659C115.346 201.659 100.162 192.037 101.326 181.144C101.317 181.144 103.636 171.53 116.732 162.832Z" stroke="#3B1314" stroke-width="5" stroke-miterlimit="10"/>
<path d="M175.453 66.8477C175.453 66.8477 182.756 81.5345 198.749 82.1476C198.749 82.1476 215.781 74.7642 218.305 59.8108C218.305 59.8108 217.265 53.467 211.001 48.1627C211.001 48.1627 192.92 45.0352 179.193 57.7229C179.193 57.7229 175.373 61.108 175.453 66.8477Z" stroke="#3B1314" stroke-width="5" stroke-miterlimit="10"/>
<path d="M267.794 114.738C267.794 114.738 246.177 120.762 243.396 135.599C243.396 135.599 253.534 147.416 267.208 144.173C267.208 144.173 284.018 130.331 267.794 114.738Z" stroke="#3B1314" stroke-width="5" stroke-miterlimit="10"/>
<path d="M143.12 221.997C143.12 221.997 178.322 187.576 200.659 226.341C200.659 226.341 199.096 236.515 181.708 247.025C181.708 247.025 170.406 250.846 157.461 242.938C157.461 242.947 149.295 237.812 143.12 221.997Z" stroke="#3B1314" stroke-width="5" stroke-miterlimit="10"/>
<path d="M218.598 186.537C218.598 186.537 226.248 175.786 243.05 174.267C243.05 174.267 253.596 177.385 255.915 193.956C255.915 193.956 249.891 198.94 237.257 198.363C237.257 198.354 225.902 196.843 218.598 186.537Z" stroke="#3B1314" stroke-width="5" stroke-miterlimit="10"/>
<path d="M342.774 163.587L308.398 129.211C303.094 123.907 294.422 123.907 289.126 129.211L208.673 209.664C203.369 214.969 203.369 223.64 208.673 228.936L248.887 269.149C254.191 274.453 262.863 274.453 268.158 269.149L343.556 193.751L342.774 163.587Z" fill="#FFEDDD"/>
<path d="M316.519 236.515C316.261 236.257 309.917 227.816 309.917 227.816L298.358 238.336V249.202L310.441 253.636L316.519 236.515Z" fill="#EFA44B"/>
<path d="M328.238 176.319C328.238 176.319 324.835 190.046 336.243 199.224C337.754 200.442 342.623 193.44 342.623 193.44L335.977 188.047C335.968 188.056 327.803 179.624 328.238 176.319Z" fill="#BA9B85"/>
<path d="M333.906 193.751L264.373 262.849C264.373 262.849 259.335 266.066 254.635 264.937C249.944 263.809 232.121 249.549 232.121 249.549C232.121 249.549 245.67 267.638 250.894 270.802C256.119 273.965 263.413 273.183 268.149 269.149C272.885 265.106 287.705 249.593 287.705 249.593L342.614 195.75L333.089 193.751" fill="#BA9B85"/>
<path d="M226.319 237.474L214.848 226.004C211.428 222.583 211.428 216.994 214.848 213.574L226.506 201.917C229.926 198.496 235.515 198.496 238.936 201.917L250.406 213.387C253.827 216.808 253.827 222.396 250.406 225.817L238.749 237.474C235.337 240.895 229.74 240.895 226.319 237.474Z" fill="#BA9B85"/>
<path d="M342.774 163.587L308.398 129.211C303.094 123.907 294.422 123.907 289.126 129.211L208.673 209.664C203.369 214.969 203.369 223.64 208.673 228.936L248.887 269.149C254.191 274.453 262.863 274.453 268.158 269.149L343.556 193.751L342.774 163.587Z" stroke="#3B1314" stroke-width="5" stroke-miterlimit="10"/>
<path d="M342.596 162.485L333.169 170.446C328.878 174.915 329.446 182.485 334.422 187.265L343.556 193.751" stroke="#3B1314" stroke-width="5" stroke-miterlimit="10"/>
<path d="M317.603 190.908L282.818 156.132C282.019 155.333 282.019 154.018 282.818 153.218L283.591 152.445C284.391 151.646 285.706 151.646 286.505 152.445L321.29 187.221C322.09 188.02 322.09 189.335 321.29 190.135L320.517 190.908C319.717 191.708 318.402 191.708 317.603 190.908Z" fill="#3B1314"/>
<path d="M311.001 197.501L276.217 162.725C275.417 161.925 275.417 160.61 276.217 159.811L276.99 159.038C277.789 158.238 279.104 158.238 279.904 159.038L314.688 193.814C315.488 194.613 315.488 195.928 314.688 196.728L313.915 197.501C313.116 198.3 311.81 198.309 311.001 197.501Z" fill="#3B1314"/>
<path d="M311.001 197.501L276.217 162.725C275.417 161.925 275.417 160.61 276.217 159.811L276.99 159.038C277.789 158.238 279.104 158.238 279.904 159.038L314.688 193.814C315.488 194.613 315.488 195.928 314.688 196.728L313.915 197.501C313.116 198.3 311.81 198.309 311.001 197.501Z" fill="#3B1314"/>
<path d="M286.932 186.634L269.597 169.309C268.807 168.518 268.807 167.23 269.597 166.439L270.415 165.622C271.206 164.831 272.494 164.831 273.285 165.622L290.619 182.947C291.41 183.738 291.41 185.026 290.619 185.817L289.802 186.634C289.011 187.425 287.723 187.425 286.932 186.634Z" fill="#3B1314"/>
<path d="M225.031 236.186L216.012 227.168C211.863 223.018 211.863 216.239 216.012 212.09L225.031 203.072C229.18 198.922 235.959 198.922 240.108 203.072L249.127 212.09C253.276 216.239 253.276 223.018 249.127 227.168L240.108 236.186C235.959 240.335 229.18 240.335 225.031 236.186Z" stroke="#3B1314" stroke-width="4" stroke-miterlimit="10"/>
<path d="M247.039 222.521C247.083 221.286 246.114 220.317 244.879 220.362L226.434 221.09L226.781 212.374C226.825 211.139 225.857 210.171 224.622 210.215C223.387 210.26 222.338 211.317 222.294 212.543L221.867 223.48C221.841 224.102 222.081 224.662 222.472 225.053C222.863 225.453 223.413 225.684 224.044 225.657L244.711 224.84C245.937 224.804 246.985 223.756 247.039 222.521Z" fill="#B9D53D"/>
<path d="M246.967 222.521C247.012 221.286 246.043 220.317 244.808 220.362L226.363 221.09L226.71 212.374C226.754 211.139 225.786 210.171 224.551 210.215C223.316 210.26 222.267 211.317 222.223 212.543L221.796 223.48C221.77 224.102 222.01 224.662 222.401 225.053C222.792 225.453 223.342 225.684 223.973 225.657L244.64 224.84C245.875 224.804 246.923 223.756 246.967 222.521Z" stroke="#3B1314" stroke-width="2" stroke-miterlimit="10"/>
<path d="M109.251 248.589C109.251 248.589 115.657 252.525 113.933 261.801C112.21 271.068 96.812 282.849 84.9861 282.521C73.1602 282.192 56.5365 275.973 51.6409 261.588C46.7364 247.194 54.7684 233.343 60.4281 227.923C66.0878 222.512 66.2478 212.063 65.1638 207.958C64.0798 203.853 61.7431 188.207 72.1474 186.235C82.5516 184.262 86.6032 196.666 86.6032 205.24C86.6032 213.814 85.0838 218.327 89.3841 214.16C93.6844 210.002 102.33 198.78 113.933 200.673C125.537 202.565 127.705 207.656 126.159 214.036C124.613 220.415 100.393 223.658 99.6374 227.194C98.8821 230.73 104.506 228.038 107.261 234.72C110.006 241.41 109.251 248.589 109.251 248.589Z" fill="#EF9D3C"/>
<path d="M231.996 250.784C231.996 250.784 234.68 260.611 242.427 268.749C250.175 276.888 255.879 287.354 280.704 288.856C305.528 290.348 313.196 273.734 315.701 267.612C318.216 261.49 325.146 242.21 312.805 229.469L300.304 242.201C300.304 242.201 293.063 243.178 290.166 238.256C287.27 233.334 276.057 219.775 276.057 219.775L270.21 215.315L263.547 214.755L258.767 220.646L258.269 227.425L250.859 228.643L246.194 233.494L245.999 240.122L236.821 241.073L232.005 246.555V250.784H231.996Z" fill="#EF9D3C"/>
<path d="M105.199 252.356C105.199 252.356 111.863 264.582 104.622 273.156C104.622 273.156 114.475 268.287 112.965 258.265C111.454 248.243 109.251 248.589 109.251 248.589" fill="#B34F27"/>
<path d="M104.613 249.806C104.613 249.806 106.701 239.784 95.6924 232.827L99.5751 227.843C99.5751 227.843 109.873 231.726 109.269 248.296" fill="#B34F27"/>
<path d="M75.0084 220.548C75.0084 220.548 80.4549 213.742 79.4953 203.747C78.5357 193.751 75.2394 189.931 72.0231 187.932C68.8067 185.933 76.3678 184.582 78.7579 187.168C81.1479 189.753 84.4531 196.452 84.4531 196.452L85.9813 207.319L85.315 215.724L82.8982 218.709L75.0084 220.548Z" fill="#B34F27"/>
<path d="M93.3202 242.219C93.3202 242.219 89.4997 236.594 92.4495 228.687C95.4082 220.779 101.574 217.892 106.701 217.554C111.828 217.216 124.089 214.622 124.435 207.967C124.435 207.967 128.06 213.796 125.759 215.83C123.449 217.865 115.915 221.17 115.915 221.17L107.483 222.787L99.4864 226.439L96.0923 231.219C96.1012 231.21 92.6183 238.798 93.3202 242.219Z" fill="#B34F27"/>
<path d="M267.172 266.013C244.764 262.228 239.877 241.259 239.877 241.259L245.475 241.055C245.475 241.055 252.547 259.438 267.589 266.013" fill="#B34F27"/>
<path d="M253.738 228.882C253.738 228.882 259.486 250.029 279.922 252.223C279.922 252.223 264.986 242.592 260.464 229.646L253.738 228.882Z" fill="#B34F27"/>
<path d="M319.069 260.14C315.124 279.455 302.383 281.739 302.383 281.739C323.707 261.81 307.776 234.053 307.776 234.053L312.067 230.233L317.105 237.403C317.105 237.403 319.175 239.358 319.069 260.14Z" fill="#B34F27"/>
<path d="M307.776 234.053C307.776 234.053 307.501 233.52 307.154 233.298L310.415 230.029L311.215 230.997" fill="#BC6138"/>
<path d="M85.2083 216.372C85.2083 216.372 89.6152 190.295 77.5583 186.59C65.5015 182.885 62.2585 198.291 64.8084 208.607C67.3584 218.922 61.3344 227.15 57.3895 231.903C53.4535 236.657 42.9071 252.419 55.7636 268.296C68.629 284.173 85.8213 284.475 101.654 276.523C116.083 269.282 116.519 256.239 108.958 246.741C108.958 246.741 112.085 234.684 100.615 228.429L99.5752 227.852" stroke="#3B1314" stroke-width="5" stroke-miterlimit="10"/>
<path d="M75.0085 220.548C77.2653 219.482 79.2467 218.309 81.2102 217.11C83.156 215.893 85.0752 214.675 86.8877 213.271C88.7002 211.885 90.3795 210.313 91.9966 208.687C92.7873 207.852 93.5425 207.043 94.4843 206.11C94.9375 205.666 95.3639 205.195 95.8437 204.777L97.3098 203.534C99.3355 201.97 101.521 200.504 103.991 199.553C106.443 198.585 109.082 197.989 111.757 197.927C114.431 197.856 117.114 198.309 119.62 199.242C120.882 199.695 122.072 200.308 123.236 200.984C123.52 201.161 123.796 201.357 124.08 201.543C124.364 201.748 124.631 201.89 124.924 202.165C125.493 202.663 126.088 203.143 126.532 203.765C127.536 204.902 128.158 206.297 128.629 207.71C128.985 209.158 129.162 210.677 128.931 212.152C128.549 215.137 126.897 217.821 124.773 219.642C120.464 223.311 115.009 224.387 110.193 224.751C108.007 224.937 105.893 225.417 103.965 226.261C102.996 226.679 102.099 227.221 101.246 227.825C100.411 228.456 99.6376 229.158 98.9357 229.957C97.523 231.548 96.5634 233.511 95.6838 235.564C94.8131 237.634 94.0845 239.829 93.3293 242.219C91.6056 237.43 92.814 231.877 96.0392 227.63C96.8477 226.572 97.7629 225.577 98.8113 224.715C99.8597 223.871 100.988 223.125 102.188 222.53C104.587 221.321 107.181 220.69 109.749 220.388L113.152 219.935C113.702 219.846 114.227 219.686 114.76 219.571C115.284 219.429 115.853 219.367 116.341 219.162L117.861 218.638C118.367 218.469 118.802 218.185 119.282 217.972C119.513 217.856 119.753 217.75 119.984 217.625L120.606 217.199C121.024 216.914 121.468 216.657 121.797 216.301C123.28 215.022 124.258 213.36 124.498 211.583C124.658 210.695 124.524 209.797 124.338 208.936C124.036 208.1 123.707 207.248 123.103 206.599C122.854 206.226 122.49 205.977 122.17 205.675C122.037 205.524 121.779 205.382 121.566 205.24L120.917 204.804C120.011 204.289 119.069 203.8 118.074 203.463C116.093 202.743 113.987 202.405 111.89 202.467C109.784 202.53 107.696 203.001 105.715 203.791C103.716 204.564 101.859 205.755 100.091 207.07L98.7935 208.109C98.3582 208.456 97.9761 208.873 97.5585 209.247L94.9552 211.717C93.1249 213.396 91.2147 214.995 89.1178 216.363C87.0476 217.75 84.8619 219.011 82.463 219.802C80.0818 220.575 77.5052 221.064 75.0085 220.548Z" fill="#3B1314"/>
<path d="M111.303 244.164C111.348 244.271 111.41 244.484 111.419 244.52L111.463 244.733C111.499 244.884 111.508 245 111.517 245.106C111.534 245.337 111.552 245.568 111.534 245.755C111.526 246.172 111.446 246.519 111.366 246.865C111.188 247.541 110.93 248.109 110.628 248.616C110.033 249.638 109.322 250.428 108.585 251.13C107.838 251.832 107.056 252.41 106.275 252.987C105.457 253.485 104.666 254.036 103.84 254.453C103.005 254.889 102.179 255.315 101.334 255.679C100.49 256.061 99.6464 256.417 98.7667 256.692C97.0342 257.305 95.2394 257.723 93.3914 257.954C94.7952 256.701 96.279 255.697 97.7183 254.649L98.8112 253.893C99.1666 253.636 99.5131 253.369 99.8774 253.12C100.606 252.632 101.281 252.099 101.956 251.566C103.298 250.517 104.586 249.407 105.581 248.225C106.088 247.647 106.506 247.043 106.79 246.501C106.932 246.226 107.021 245.977 107.065 245.781C107.083 245.693 107.101 245.604 107.101 245.568C107.11 245.533 107.101 245.542 107.11 245.551C107.11 245.542 107.119 245.55 107.119 245.595L107.127 245.639C107.127 245.622 107.163 245.773 107.199 245.835L111.303 244.164Z" fill="#3B1314"/>
<path d="M279.922 252.223C277.852 252.01 275.844 251.201 274.022 250.153C272.192 249.104 270.53 247.79 269.011 246.359C267.483 244.929 266.123 243.356 264.853 241.73C263.573 240.104 262.365 238.443 261.219 236.746C260.082 235.022 258.944 233.423 257.896 231.388C256.901 229.407 256.155 227.132 256.119 224.68C256.083 222.236 256.901 219.74 258.234 217.767C258.9 216.781 259.655 215.884 260.464 215.084L261.086 214.506C261.281 214.32 261.637 214.071 261.912 213.858C262.205 213.627 262.525 213.476 262.845 213.307L263.334 213.067L263.831 212.898C265.155 212.445 266.488 212.339 267.714 212.436C268.949 212.525 270.131 212.765 271.241 213.138C273.471 213.893 275.515 214.986 277.354 216.745C278.34 217.741 278.882 218.62 279.504 219.5C280.099 220.379 280.633 221.232 281.183 222.085C282.259 223.791 283.307 225.471 284.409 227.105C286.612 230.357 288.949 233.476 291.597 236.257C292.912 237.652 294.307 238.94 295.675 239.82C296.323 240.22 297.034 240.442 297.132 240.424C297.167 240.406 297.016 240.495 297.008 240.539C296.999 240.53 297.008 240.539 297.016 240.539C297.016 240.522 297.034 240.513 297.052 240.495C297.061 240.468 297.087 240.451 297.087 240.415L297.105 240.379C297.105 240.388 297.114 240.335 297.096 240.433L297.239 239.953C297.176 240.104 297.194 240.077 297.185 240.113L297.176 240.157C297.176 240.175 297.176 240.184 297.176 240.193C297.176 240.202 297.176 240.202 297.185 240.193C297.185 240.175 297.185 240.131 297.176 240.077C297.15 239.962 297.087 239.784 296.954 239.589L300.562 236.994C300.952 237.527 301.308 238.167 301.521 238.922C301.628 239.304 301.699 239.704 301.708 240.14C301.717 240.353 301.708 240.575 301.672 240.815C301.654 240.93 301.637 241.055 301.61 241.179L301.557 241.383C301.53 241.472 301.53 241.499 301.45 241.703L301.592 241.224C301.557 241.446 301.53 241.517 301.494 241.641C301.468 241.757 301.432 241.854 301.397 241.961C301.334 242.174 301.228 242.379 301.139 242.583C301.032 242.787 300.908 242.992 300.784 243.187C300.633 243.391 300.473 243.587 300.313 243.774C299.593 244.555 298.447 245.026 297.487 245.08C297.256 245.088 297.016 245.097 296.785 245.088C296.554 245.08 296.377 245.035 296.163 245L295.568 244.884L295.062 244.706C294.351 244.475 293.844 244.164 293.267 243.871C291.215 242.61 289.642 241.126 288.158 239.624C286.683 238.114 285.279 236.541 283.982 234.906C282.694 233.263 281.486 231.574 280.339 229.869C279.193 228.163 278.1 226.421 277.034 224.724C276.501 223.88 275.986 223.018 275.453 222.219C274.937 221.437 274.386 220.61 273.933 220.175C272.876 219.127 271.321 218.203 269.74 217.67C268.167 217.136 266.461 216.923 265.288 217.314L265.066 217.376L264.871 217.474C264.746 217.536 264.595 217.581 264.498 217.678C264.373 217.776 264.293 217.794 264.124 217.945L263.627 218.38C262.987 218.984 262.427 219.615 261.948 220.291C260.997 221.641 260.482 223.125 260.446 224.715C260.428 226.306 260.846 227.994 261.601 229.629C262.338 231.21 263.44 232.969 264.471 234.64C266.559 237.998 268.878 241.179 271.366 244.173C273.862 247.141 276.457 249.993 279.922 252.223Z" fill="#3B1314"/>
<path d="M257.967 230.775C257.994 230.793 257.861 230.73 257.781 230.704C257.683 230.668 257.585 230.633 257.478 230.606C257.274 230.544 257.052 230.482 256.83 230.446C256.386 230.357 255.924 230.277 255.453 230.259C254.52 230.197 253.569 230.295 252.636 230.535L251.934 230.73L251.241 230.97L250.708 231.219C250.53 231.299 250.388 231.432 250.228 231.521C249.615 231.965 249.109 232.596 248.709 233.369C247.918 234.942 247.625 237.048 247.749 239.109C247.785 239.624 247.829 240.148 247.918 240.655C247.998 241.152 248.096 241.712 248.238 242.103C248.478 242.965 248.984 244.022 249.473 245.008C251.579 248.998 254.182 252.898 257.052 256.514C258.482 258.336 260.002 260.095 261.663 261.712C263.325 263.329 265.093 264.857 267.181 266.004C264.853 265.426 262.712 264.218 260.713 262.867C258.705 261.517 256.874 259.917 255.142 258.238C253.409 256.55 251.783 254.764 250.282 252.872C248.762 250.988 247.341 249.024 246.07 246.901C245.439 245.808 244.817 244.777 244.311 243.4C244.178 243.054 244.062 242.707 243.991 242.396C243.911 242.076 243.822 241.748 243.76 241.428C243.618 240.779 243.529 240.131 243.458 239.473C243.183 236.861 243.369 234.089 244.604 231.379C245.226 230.037 246.203 228.74 247.492 227.789C247.821 227.567 248.149 227.319 248.496 227.141C248.851 226.963 249.215 226.785 249.562 226.634C250.211 226.386 250.868 226.181 251.552 226.021C252.912 225.702 254.342 225.577 255.755 225.693C256.466 225.737 257.176 225.853 257.878 226.03C258.225 226.119 258.58 226.226 258.927 226.359C259.104 226.421 259.282 226.492 259.46 226.563C259.655 226.652 259.789 226.706 260.082 226.857L257.967 230.775Z" fill="#3B1314"/>
<path d="M245.475 241.064C245.475 241.064 241.85 239.1 236.812 241.064C231.774 243.027 231.339 249.922 232.556 254.524C233.773 259.127 247.128 275.635 256.35 282.014C256.35 282.014 270.371 294.302 297.416 285.95C325.582 277.261 323.627 238.709 310.415 226.883" stroke="#3B1314" stroke-width="5" stroke-miterlimit="10"/>
</svg>
